<svg width="19" height="18" viewBox="0 0 19 18" fill="none" xmlns="http://www.w3.org/2000/svg">
<path d="M5.24996 2.33341C5.7102 2.33342 6.08329 1.96032 6.08329 1.50008C6.08329 1.03984 5.7102 0.666748 5.24996 0.666748H3.99996C2.15901 0.666748 0.666626 2.15913 0.666626 4.00008V14.0001C0.666626 15.841 2.15901 17.3334 3.99996 17.3334H5.24996C5.7102 17.3334 6.08329 16.9603 6.08329 16.5001C6.08329 16.0398 5.7102 15.6667 5.24996 15.6667H3.99996C3.07949 15.6667 2.33329 14.9206 2.33329 14.0001L2.33329 4.00008C2.33329 3.07961 3.07949 2.33341 3.99996 2.33341H5.24996Z" fill="black"/>
<path d="M17.9225 9.58934C18.248 9.2639 18.248 8.73626 17.9225 8.41083L14.5892 5.07749C14.2638 4.75206 13.7361 4.75206 13.4107 5.07749C13.0853 5.40293 13.0853 5.93057 13.4107 6.256L15.3214 8.16675L5.66663 8.16675C5.20639 8.16675 4.83329 8.53984 4.83329 9.00008C4.83329 9.46032 5.20639 9.83341 5.66663 9.83341L15.3214 9.83342L13.4107 11.7442C13.0853 12.0696 13.0853 12.5972 13.4107 12.9227C13.7361 13.2481 14.2638 13.2481 14.5892 12.9227L17.9225 9.58934Z" fill="black"/>
</svg>
