<svg width="100" height="100" viewBox="0 0 24 24" fill="none" xmlns="http://www.w3.org/2000/svg">
  <path d="M7 15H6.5C4.01472 15 2 12.9853 2 10.5C2 8.01472 4.01472 6 6.5 6H13.5C15.9853 6 18 8.01472 18 10.5C18 12.9853 15.9853 15 13.5 15H13L10 18L7 15Z" fill="#6E6E6E"/>
  <path d="M17.5 8H17C16.4477 8 16 8.44772 16 9C16 9.55228 16.4477 10 17 10H17.5C18.0523 10 18.5 10.4477 18.5 11C18.5 11.5523 18.0523 12 17.5 12H17C16.4477 12 16 12.4477 16 13C16 13.5523 16.4477 14 17 14H17.5C19.9853 14 22 11.9853 22 9.5C22 7.01472 19.9853 5 17.5 5H10.5C9.94772 5 9.5 5.44772 9.5 6C9.5 6.55228 9.94772 7 10.5 7H17.5C18.0523 7 18.5 7.44772 18.5 8C18.5 8.55228 18.0523 9 17.5 9H17Z" fill="#6E6E6E"/>
  <circle cx="9" cy="10.5" r="1" fill="white"/>
  <circle cx="12" cy="10.5" r="1" fill="white"/>
  <circle cx="15" cy="10.5" r="1" fill="white"/>
</svg>
